<!--?xml version="1.0" standalone="no"?-->
              <svg id="sw-js-blob-svg" viewBox="0 0 100 100" xmlns="http://www.w3.org/2000/svg" version="1.1">
                    <defs> 
                        <linearGradient id="sw-gradient" x1="0" x2="1" y1="1" y2="0">
                            <stop id="stop1" stop-color="rgba(82, 111, 255, 1)" offset="0%"></stop>
                            <stop id="stop2" stop-color="rgba(65, 201, 226, 1)" offset="100%"></stop>
                        </linearGradient>
                    </defs>
                <path fill="url(#sw-gradient)" d="M23.8,-33.8C30.9,-32.4,37,-26,38.5,-18.8C39.9,-11.5,36.7,-3.4,34.2,4C31.7,11.3,29.9,17.8,25.2,20C20.5,22.1,12.8,19.9,7,19.7C1.2,19.6,-2.9,21.5,-7.7,22C-12.6,22.6,-18.4,21.8,-25.3,19C-32.1,16.3,-40.1,11.6,-41.1,5.8C-42.2,0,-36.4,-7,-32.5,-14.5C-28.5,-22,-26.5,-30.1,-21.4,-32.5C-16.4,-34.9,-8.2,-31.5,0.1,-31.6C8.3,-31.7,16.6,-35.2,23.8,-33.8Z"
                      transform="translate(50 50)" style="transition: 0.3s;" stroke-width="0" stroke="url(#sw-gradient)"></path>
              </svg>